<svg fill="currentColor" xmlns="http://www.w3.org/2000/svg" width="25" height="25" viewBox="0 0 6.615 6.615"><title>Settings</title><path d="M2.64 0s-.03.94-.424 1.215C1.823 1.49.885.894.885.894L.112 2.232.109 2.23l.003.002c.01.006.797.499.838.974.042.478-.944.992-.944.992l.77 1.34s.83-.442 1.265-.24c.435.204.387 1.314.387 1.314l1.546.003s.032-.94.425-1.215c.393-.275 1.331.321 1.331.321l.775-1.338s-.798-.496-.84-.974c-.041-.478.944-.993.944-.993l-.77-1.34s-.83.443-1.265.24C4.14 1.113 4.187.002 4.187.002zm.688 2.25a1.106 1.106 0 110 2.211 1.106 1.106 0 010-2.21z" paint-order="fill markers stroke"/></svg>
