<svg fill="currentColor" xmlns="http://www.w3.org/2000/svg" width="30" height="25" viewBox="0 0 7.937 6.615"><title>Subscriptions</title><path d="M2.373 0h3.191a.52.52 0 01.521.521H1.852A.52.52 0 012.373 0zm-.91.794h5.011c.371 0 .67.298.67.67v.123l-6.35-.016v-.108c0-.37.298-.67.67-.67zm-.405 1.058C.472 1.852 0 2.184 0 2.77v2.868c0 .586.472.977 1.058.977H6.88c.586 0 1.059-.39 1.059-.977V2.77c0-.586-.473-.918-1.059-.918zM5.3 4.017c.167.099.19.276.012.366l-2.098.985c-.131.077-.304-.002-.302-.19V3.29c0-.203.18-.333.34-.245z" paint-order="fill markers stroke"/></svg>
